<svg width="28" height="28" xmlns="http://www.w3.org/2000/svg"><path d="M21 6.5a6.5 6.5 0 1 0-13 0 6.5 6.5 0 0 0 13 0zm-11 0a4.5 4.5 0 1 1 9 0 4.5 4.5 0 0 1-9 0zM3.36 25.25c0-.232.04-.677.161-1.257a8.711 8.711 0 0 1 1.12-2.824 7.952 7.952 0 0 1 3.054-2.84C9.328 17.455 11.4 17 13.86 17s4.532.454 6.164 1.33c1.291.692 2.313 1.645 3.055 2.839.558.896.918 1.86 1.12 2.824.12.58.161 1.025.161 1.257 0 .43-.266.75-.553.75H3.913c-.287 0-.553-.32-.553-.75zM23.334 28c1.685 0 3.026-1.472 3.026-3.25 0-.393-.058-.98-.222-1.693a9.802 9.802 0 0 0-1.46-3.35c-.962-1.409-2.274-2.522-3.885-3.309C18.88 15.465 16.547 15 13.86 15c-2.687 0-5.02.465-6.933 1.398-1.61.784-2.922 1.9-3.885 3.309a9.802 9.802 0 0 0-1.46 3.35c-.164.714-.222 1.3-.222 1.693 0 1.778 1.341 3.25 3.026 3.25h18.948z" fill="#FFF" fill-rule="evenodd"/></svg>